<mxfile host="app.diagrams.net" modified="2024-05-06T09:33:47.998Z" agent="Mozilla/5.0 (Macintosh; Intel Mac OS X 10_15_7) AppleWebKit/537.36 (KHTML, like Gecko) Chrome/124.0.0.0 Safari/537.36 Edg/124.0.0.0" etag="n8_akiI8iD-0JEYsM3Bq" version="24.3.1" type="github">
  <diagram name="第 1 页" id="MwWwXpB2gcrxEKsY504V">
    <mxGraphModel dx="1622" dy="911" grid="1" gridSize="10" guides="1" tooltips="1" connect="1" arrows="1" fold="1" page="1" pageScale="1" pageWidth="827" pageHeight="1169" math="0" shadow="0">
      <root>
        <mxCell id="0" />
        <mxCell id="1" parent="0" />
        <mxCell id="fBIbXm-jHvFAr-NhKLPL-1" value="" style="rounded=1;whiteSpace=wrap;html=1;fillColor=none;strokeWidth=5;dashed=1;dashPattern=1 1;fontFamily=宋体;" vertex="1" parent="1">
          <mxGeometry x="20" y="20" width="870" height="130" as="geometry" />
        </mxCell>
        <mxCell id="fBIbXm-jHvFAr-NhKLPL-2" value="数据层" style="text;html=1;align=center;verticalAlign=middle;whiteSpace=wrap;rounded=0;fontFamily=宋体;fontSize=33;" vertex="1" parent="1">
          <mxGeometry x="30" y="40" width="120" height="20" as="geometry" />
        </mxCell>
        <mxCell id="fBIbXm-jHvFAr-NhKLPL-5" style="edgeStyle=orthogonalEdgeStyle;rounded=0;orthogonalLoop=1;jettySize=auto;html=1;entryX=0;entryY=0.5;entryDx=0;entryDy=0;fontFamily=宋体;" edge="1" parent="1" source="fBIbXm-jHvFAr-NhKLPL-6" target="fBIbXm-jHvFAr-NhKLPL-9">
          <mxGeometry relative="1" as="geometry" />
        </mxCell>
        <mxCell id="fBIbXm-jHvFAr-NhKLPL-6" value="&lt;span style=&quot;font-size: 28px;&quot;&gt;&lt;font face=&quot;Times New Roman&quot;&gt;Java&lt;/font&gt;、&lt;font face=&quot;Times New Roman&quot;&gt;C++&lt;/font&gt;分析&lt;/span&gt;" style="rounded=0;whiteSpace=wrap;html=1;fillColor=none;strokeWidth=2.5;fontFamily=宋体;fontSize=33;" vertex="1" parent="1">
          <mxGeometry x="160" y="60" width="220" height="50" as="geometry" />
        </mxCell>
        <mxCell id="fBIbXm-jHvFAr-NhKLPL-9" value="&lt;span style=&quot;font-size: 28px;&quot;&gt;标准化格式数据&lt;/span&gt;" style="rounded=0;whiteSpace=wrap;html=1;fillColor=none;strokeWidth=2.5;fontFamily=宋体;fontSize=33;" vertex="1" parent="1">
          <mxGeometry x="570" y="60" width="220" height="50" as="geometry" />
        </mxCell>
        <mxCell id="fBIbXm-jHvFAr-NhKLPL-13" value="解析转化" style="text;html=1;align=center;verticalAlign=middle;whiteSpace=wrap;rounded=0;fontFamily=宋体;fontSize=28;" vertex="1" parent="1">
          <mxGeometry x="390" y="55" width="170" height="20" as="geometry" />
        </mxCell>
        <mxCell id="fBIbXm-jHvFAr-NhKLPL-16" value="" style="rounded=1;whiteSpace=wrap;html=1;fillColor=none;strokeWidth=5;dashed=1;dashPattern=1 1;fontFamily=宋体;" vertex="1" parent="1">
          <mxGeometry x="20" y="450" width="870" height="280" as="geometry" />
        </mxCell>
        <mxCell id="fBIbXm-jHvFAr-NhKLPL-17" value="" style="group;fontFamily=宋体;" vertex="1" connectable="0" parent="1">
          <mxGeometry x="20" y="160" width="870" height="280" as="geometry" />
        </mxCell>
        <mxCell id="fBIbXm-jHvFAr-NhKLPL-18" value="" style="rounded=1;whiteSpace=wrap;html=1;fillColor=none;strokeWidth=5;dashed=1;dashPattern=1 1;fontFamily=宋体;" vertex="1" parent="fBIbXm-jHvFAr-NhKLPL-17">
          <mxGeometry width="870" height="280" as="geometry" />
        </mxCell>
        <mxCell id="fBIbXm-jHvFAr-NhKLPL-19" value="逻辑处理层" style="text;html=1;align=center;verticalAlign=middle;whiteSpace=wrap;rounded=0;fontFamily=宋体;fontSize=33;" vertex="1" parent="fBIbXm-jHvFAr-NhKLPL-17">
          <mxGeometry x="10" y="30" width="170" height="20" as="geometry" />
        </mxCell>
        <mxCell id="fBIbXm-jHvFAr-NhKLPL-20" style="edgeStyle=orthogonalEdgeStyle;rounded=0;orthogonalLoop=1;jettySize=auto;html=1;entryX=1;entryY=0.5;entryDx=0;entryDy=0;fontFamily=宋体;" edge="1" parent="fBIbXm-jHvFAr-NhKLPL-17" source="fBIbXm-jHvFAr-NhKLPL-21" target="fBIbXm-jHvFAr-NhKLPL-23">
          <mxGeometry relative="1" as="geometry" />
        </mxCell>
        <mxCell id="fBIbXm-jHvFAr-NhKLPL-21" value="&lt;span style=&quot;font-size: 28px;&quot;&gt;&lt;font face=&quot;Times New Roman&quot;&gt;ML&lt;/font&gt;模型&lt;/span&gt;" style="rounded=0;whiteSpace=wrap;html=1;fillColor=none;strokeWidth=2.5;fontFamily=宋体;fontSize=33;" vertex="1" parent="fBIbXm-jHvFAr-NhKLPL-17">
          <mxGeometry x="550" y="15" width="220" height="50" as="geometry" />
        </mxCell>
        <mxCell id="fBIbXm-jHvFAr-NhKLPL-22" style="edgeStyle=orthogonalEdgeStyle;rounded=0;orthogonalLoop=1;jettySize=auto;html=1;entryX=0.5;entryY=0;entryDx=0;entryDy=0;fontFamily=宋体;" edge="1" parent="fBIbXm-jHvFAr-NhKLPL-17" source="fBIbXm-jHvFAr-NhKLPL-23" target="fBIbXm-jHvFAr-NhKLPL-25">
          <mxGeometry relative="1" as="geometry" />
        </mxCell>
        <mxCell id="fBIbXm-jHvFAr-NhKLPL-23" value="&lt;span style=&quot;font-size: 28px;&quot;&gt;漏洞建模&lt;/span&gt;" style="rounded=0;whiteSpace=wrap;html=1;fillColor=none;strokeWidth=2.5;fontFamily=宋体;fontSize=33;" vertex="1" parent="fBIbXm-jHvFAr-NhKLPL-17">
          <mxGeometry x="210" y="15" width="220" height="50" as="geometry" />
        </mxCell>
        <mxCell id="fBIbXm-jHvFAr-NhKLPL-24" style="edgeStyle=orthogonalEdgeStyle;rounded=0;orthogonalLoop=1;jettySize=auto;html=1;entryX=0;entryY=0.5;entryDx=0;entryDy=0;fontFamily=宋体;" edge="1" parent="fBIbXm-jHvFAr-NhKLPL-17" source="fBIbXm-jHvFAr-NhKLPL-25" target="fBIbXm-jHvFAr-NhKLPL-27">
          <mxGeometry relative="1" as="geometry" />
        </mxCell>
        <mxCell id="fBIbXm-jHvFAr-NhKLPL-25" value="&lt;span style=&quot;font-size: 28px;&quot;&gt;漏洞分析&lt;/span&gt;" style="rounded=0;whiteSpace=wrap;html=1;fillColor=none;strokeWidth=2.5;fontFamily=宋体;fontSize=33;" vertex="1" parent="fBIbXm-jHvFAr-NhKLPL-17">
          <mxGeometry x="20" y="120" width="220" height="50" as="geometry" />
        </mxCell>
        <mxCell id="fBIbXm-jHvFAr-NhKLPL-26" value="" style="edgeStyle=orthogonalEdgeStyle;rounded=0;orthogonalLoop=1;jettySize=auto;html=1;fontFamily=宋体;" edge="1" parent="fBIbXm-jHvFAr-NhKLPL-17" source="fBIbXm-jHvFAr-NhKLPL-27" target="fBIbXm-jHvFAr-NhKLPL-29">
          <mxGeometry relative="1" as="geometry" />
        </mxCell>
        <mxCell id="fBIbXm-jHvFAr-NhKLPL-27" value="&lt;span style=&quot;font-size: 28px;&quot;&gt;漏洞测试&lt;/span&gt;" style="rounded=0;whiteSpace=wrap;html=1;fillColor=none;strokeWidth=2.5;fontFamily=宋体;fontSize=33;" vertex="1" parent="fBIbXm-jHvFAr-NhKLPL-17">
          <mxGeometry x="320" y="120" width="220" height="50" as="geometry" />
        </mxCell>
        <mxCell id="fBIbXm-jHvFAr-NhKLPL-28" style="edgeStyle=orthogonalEdgeStyle;rounded=0;orthogonalLoop=1;jettySize=auto;html=1;entryX=1;entryY=0.5;entryDx=0;entryDy=0;fontFamily=宋体;" edge="1" parent="fBIbXm-jHvFAr-NhKLPL-17" source="fBIbXm-jHvFAr-NhKLPL-29" target="fBIbXm-jHvFAr-NhKLPL-31">
          <mxGeometry relative="1" as="geometry" />
        </mxCell>
        <mxCell id="fBIbXm-jHvFAr-NhKLPL-29" value="&lt;span style=&quot;font-size: 28px;&quot;&gt;漏洞报告&lt;/span&gt;" style="rounded=0;whiteSpace=wrap;html=1;fillColor=none;strokeWidth=2.5;fontFamily=宋体;fontSize=33;" vertex="1" parent="fBIbXm-jHvFAr-NhKLPL-17">
          <mxGeometry x="620" y="120" width="220" height="50" as="geometry" />
        </mxCell>
        <mxCell id="fBIbXm-jHvFAr-NhKLPL-30" style="edgeStyle=orthogonalEdgeStyle;rounded=0;orthogonalLoop=1;jettySize=auto;html=1;entryX=1;entryY=0.5;entryDx=0;entryDy=0;fontFamily=宋体;" edge="1" parent="fBIbXm-jHvFAr-NhKLPL-17" source="fBIbXm-jHvFAr-NhKLPL-31" target="fBIbXm-jHvFAr-NhKLPL-32">
          <mxGeometry relative="1" as="geometry" />
        </mxCell>
        <mxCell id="fBIbXm-jHvFAr-NhKLPL-31" value="&lt;span style=&quot;font-size: 28px;&quot;&gt;漏洞验证&lt;/span&gt;" style="rounded=0;whiteSpace=wrap;html=1;fillColor=none;strokeWidth=2.5;fontFamily=宋体;fontSize=33;" vertex="1" parent="fBIbXm-jHvFAr-NhKLPL-17">
          <mxGeometry x="470" y="215" width="220" height="50" as="geometry" />
        </mxCell>
        <mxCell id="fBIbXm-jHvFAr-NhKLPL-32" value="&lt;span style=&quot;font-size: 28px;&quot;&gt;自动化修复策略&lt;/span&gt;" style="rounded=0;whiteSpace=wrap;html=1;fillColor=none;strokeWidth=2.5;fontFamily=宋体;fontSize=33;" vertex="1" parent="fBIbXm-jHvFAr-NhKLPL-17">
          <mxGeometry x="170" y="215" width="220" height="50" as="geometry" />
        </mxCell>
        <mxCell id="fBIbXm-jHvFAr-NhKLPL-33" value="解析" style="text;html=1;align=center;verticalAlign=middle;whiteSpace=wrap;rounded=0;fontFamily=宋体;fontSize=28;" vertex="1" parent="fBIbXm-jHvFAr-NhKLPL-17">
          <mxGeometry x="410" y="52" width="170" height="20" as="geometry" />
        </mxCell>
        <mxCell id="fBIbXm-jHvFAr-NhKLPL-34" style="edgeStyle=orthogonalEdgeStyle;rounded=0;orthogonalLoop=1;jettySize=auto;html=1;exitX=0.5;exitY=1;exitDx=0;exitDy=0;fontFamily=宋体;" edge="1" parent="fBIbXm-jHvFAr-NhKLPL-17" source="fBIbXm-jHvFAr-NhKLPL-18" target="fBIbXm-jHvFAr-NhKLPL-18">
          <mxGeometry relative="1" as="geometry" />
        </mxCell>
        <mxCell id="fBIbXm-jHvFAr-NhKLPL-35" value="表现层" style="text;html=1;align=center;verticalAlign=middle;whiteSpace=wrap;rounded=0;fontFamily=宋体;fontSize=33;" vertex="1" parent="1">
          <mxGeometry x="30" y="470" width="120" height="20" as="geometry" />
        </mxCell>
        <mxCell id="fBIbXm-jHvFAr-NhKLPL-36" value="&lt;span style=&quot;font-size: 28px;&quot;&gt;漏洞检测报告&lt;/span&gt;" style="rounded=0;whiteSpace=wrap;html=1;fillColor=none;strokeWidth=2.5;fontFamily=宋体;fontSize=33;" vertex="1" parent="1">
          <mxGeometry x="620" y="590" width="220" height="50" as="geometry" />
        </mxCell>
        <mxCell id="fBIbXm-jHvFAr-NhKLPL-37" value="&lt;span style=&quot;font-size: 28px;&quot;&gt;漏洞验证代码&lt;/span&gt;" style="rounded=0;whiteSpace=wrap;html=1;fillColor=none;strokeWidth=2.5;fontFamily=宋体;fontSize=33;" vertex="1" parent="1">
          <mxGeometry x="350" y="590" width="220" height="50" as="geometry" />
        </mxCell>
        <mxCell id="fBIbXm-jHvFAr-NhKLPL-38" value="&lt;span style=&quot;font-size: 28px;&quot;&gt;代码修复建议&lt;/span&gt;" style="rounded=0;whiteSpace=wrap;html=1;fillColor=none;strokeWidth=2.5;fontFamily=宋体;fontSize=33;" vertex="1" parent="1">
          <mxGeometry x="80" y="590" width="220" height="50" as="geometry" />
        </mxCell>
        <mxCell id="fBIbXm-jHvFAr-NhKLPL-39" style="edgeStyle=orthogonalEdgeStyle;rounded=0;orthogonalLoop=1;jettySize=auto;html=1;exitX=0;exitY=0.75;exitDx=0;exitDy=0;entryX=1;entryY=0.75;entryDx=0;entryDy=0;strokeWidth=5;endArrow=none;endFill=0;dashed=1;dashPattern=1 1;fontFamily=宋体;" edge="1" parent="1" source="fBIbXm-jHvFAr-NhKLPL-16" target="fBIbXm-jHvFAr-NhKLPL-16">
          <mxGeometry relative="1" as="geometry">
            <Array as="points">
              <mxPoint x="455" y="660" />
              <mxPoint x="455" y="660" />
            </Array>
          </mxGeometry>
        </mxCell>
        <mxCell id="fBIbXm-jHvFAr-NhKLPL-40" style="edgeStyle=orthogonalEdgeStyle;rounded=0;orthogonalLoop=1;jettySize=auto;html=1;entryX=0.5;entryY=1;entryDx=0;entryDy=0;strokeWidth=5;endArrow=none;endFill=0;dashed=1;dashPattern=1 1;fontFamily=宋体;" edge="1" parent="1" target="fBIbXm-jHvFAr-NhKLPL-16">
          <mxGeometry relative="1" as="geometry">
            <mxPoint x="455" y="660" as="sourcePoint" />
            <mxPoint x="900" y="670" as="targetPoint" />
            <Array as="points">
              <mxPoint x="455" y="700" />
              <mxPoint x="455" y="700" />
            </Array>
          </mxGeometry>
        </mxCell>
        <mxCell id="fBIbXm-jHvFAr-NhKLPL-41" value="&lt;span style=&quot;font-size: 28px;&quot;&gt;可交互&lt;/span&gt;" style="rounded=0;whiteSpace=wrap;html=1;fillColor=none;strokeWidth=2.5;fontFamily=宋体;fontSize=33;strokeColor=none;" vertex="1" parent="1">
          <mxGeometry x="120" y="670" width="220" height="50" as="geometry" />
        </mxCell>
        <mxCell id="fBIbXm-jHvFAr-NhKLPL-42" value="&lt;span style=&quot;font-size: 28px;&quot;&gt;支持直接修改生成的代码&lt;/span&gt;" style="rounded=0;whiteSpace=wrap;html=1;fillColor=none;strokeWidth=2.5;fontFamily=宋体;fontSize=33;strokeColor=none;" vertex="1" parent="1">
          <mxGeometry x="520" y="670" width="320" height="50" as="geometry" />
        </mxCell>
        <mxCell id="fBIbXm-jHvFAr-NhKLPL-50" style="edgeStyle=orthogonalEdgeStyle;rounded=0;orthogonalLoop=1;jettySize=auto;html=1;exitX=0;exitY=0.75;exitDx=0;exitDy=0;entryX=1;entryY=0.75;entryDx=0;entryDy=0;strokeWidth=5;endArrow=none;endFill=0;dashed=1;dashPattern=1 1;fontFamily=宋体;" edge="1" parent="1">
          <mxGeometry relative="1" as="geometry">
            <mxPoint x="20" y="510" as="sourcePoint" />
            <mxPoint x="890" y="510" as="targetPoint" />
            <Array as="points">
              <mxPoint x="455" y="510" />
              <mxPoint x="455" y="510" />
            </Array>
          </mxGeometry>
        </mxCell>
        <mxCell id="fBIbXm-jHvFAr-NhKLPL-51" style="edgeStyle=orthogonalEdgeStyle;rounded=0;orthogonalLoop=1;jettySize=auto;html=1;exitX=0;exitY=0.75;exitDx=0;exitDy=0;entryX=1;entryY=0.75;entryDx=0;entryDy=0;strokeWidth=5;endArrow=none;endFill=0;dashed=1;dashPattern=1 1;fontFamily=宋体;" edge="1" parent="1">
          <mxGeometry relative="1" as="geometry">
            <mxPoint x="25" y="570" as="sourcePoint" />
            <mxPoint x="895" y="570" as="targetPoint" />
            <Array as="points">
              <mxPoint x="460" y="570" />
              <mxPoint x="460" y="570" />
            </Array>
          </mxGeometry>
        </mxCell>
        <mxCell id="fBIbXm-jHvFAr-NhKLPL-52" value="&lt;span style=&quot;font-size: 28px;&quot;&gt;可视化中间件&lt;/span&gt;" style="rounded=0;whiteSpace=wrap;html=1;fillColor=none;strokeWidth=2.5;fontFamily=宋体;fontSize=33;strokeColor=none;" vertex="1" parent="1">
          <mxGeometry x="345" y="520" width="220" height="50" as="geometry" />
        </mxCell>
      </root>
    </mxGraphModel>
  </diagram>
</mxfile>
